<svg xmlns="http://www.w3.org/2000/svg" width="14.934" height="17.9" viewBox="0 0 14.934 17.9">
  <g id="Group_1" data-name="Group 1" transform="translate(-42)">
    <path id="Path_2" data-name="Path 2" d="M133.342,8.623a4.172,4.172,0,0,0,3.048-1.263,4.172,4.172,0,0,0,1.263-3.048,4.172,4.172,0,0,0-1.263-3.048,4.31,4.31,0,0,0-6.1,0,4.172,4.172,0,0,0-1.263,3.048,4.172,4.172,0,0,0,1.263,3.048A4.173,4.173,0,0,0,133.342,8.623ZM131.036,2a3.261,3.261,0,0,1,4.613,0,3.117,3.117,0,0,1,.956,2.307,3.117,3.117,0,0,1-.956,2.307,3.261,3.261,0,0,1-4.613,0,3.116,3.116,0,0,1-.956-2.307A3.116,3.116,0,0,1,131.036,2Z" transform="translate(-83.988)" fill="#343434"/>
    <path id="Path_3" data-name="Path 3" d="M56.9,252.434a10.653,10.653,0,0,0-.145-1.131,8.9,8.9,0,0,0-.278-1.137,5.616,5.616,0,0,0-.468-1.061,4,4,0,0,0-.7-.919,3.109,3.109,0,0,0-1.013-.636A3.5,3.5,0,0,0,53,247.316a1.312,1.312,0,0,0-.7.3c-.21.137-.456.3-.73.471a4.182,4.182,0,0,1-.945.416,3.668,3.668,0,0,1-2.31,0,4.17,4.17,0,0,1-.944-.416c-.272-.174-.517-.332-.731-.471a1.311,1.311,0,0,0-.7-.3,3.5,3.5,0,0,0-1.293.234,3.105,3.105,0,0,0-1.013.636,4,4,0,0,0-.7.919,5.63,5.63,0,0,0-.467,1.061,8.932,8.932,0,0,0-.278,1.137,10.577,10.577,0,0,0-.145,1.131c-.024.342-.036.7-.036,1.057a2.972,2.972,0,0,0,.883,2.249,3.178,3.178,0,0,0,2.275.83h8.619a3.178,3.178,0,0,0,2.275-.83,2.971,2.971,0,0,0,.883-2.249C56.934,253.131,56.922,252.775,56.9,252.434Zm-1.57,2.546a2.139,2.139,0,0,1-1.552.541H45.158a2.139,2.139,0,0,1-1.552-.541,1.941,1.941,0,0,1-.557-1.489c0-.335.011-.667.033-.985a9.541,9.541,0,0,1,.131-1.019,7.878,7.878,0,0,1,.245-1,4.583,4.583,0,0,1,.38-.862,2.963,2.963,0,0,1,.518-.679,2.062,2.062,0,0,1,.674-.419,2.413,2.413,0,0,1,.826-.159c.037.02.1.057.208.126.216.141.464.3.739.476a5.2,5.2,0,0,0,1.186.53,4.716,4.716,0,0,0,2.956,0,5.2,5.2,0,0,0,1.186-.53c.281-.18.523-.335.738-.476.106-.069.171-.106.208-.126a2.414,2.414,0,0,1,.826.159,2.065,2.065,0,0,1,.674.419,2.955,2.955,0,0,1,.518.679,4.565,4.565,0,0,1,.381.862,7.861,7.861,0,0,1,.245,1,9.621,9.621,0,0,1,.131,1.019h0c.022.317.033.648.034.984A1.941,1.941,0,0,1,55.328,254.98Z" transform="translate(0 -238.669)" fill="#343434"/>
  </g>
</svg>
