<svg xmlns="http://www.w3.org/2000/svg" width="17.122" height="15.911" viewBox="0 0 17.122 15.911">
  <g id="Group_115" data-name="Group 115" transform="translate(0 -16.896)">
    <g id="Group_114" data-name="Group 114" transform="translate(0 16.896)">
      <path id="Path_18" data-name="Path 18" d="M15.722,18.392a4.679,4.679,0,0,0-6.857,0l-.3.319-.3-.319a4.682,4.682,0,0,0-6.617-.243q-.126.117-.243.243a5.251,5.251,0,0,0,0,7.14l6.718,7.084a.612.612,0,0,0,.865.023l.023-.023,6.715-7.084A5.251,5.251,0,0,0,15.722,18.392Zm-.885,6.3h0L8.562,31.306,2.288,24.689a4.013,4.013,0,0,1,0-5.455,3.459,3.459,0,0,1,4.887-.2q.1.094.2.2l.746.787a.63.63,0,0,0,.889,0l.746-.786a3.459,3.459,0,0,1,4.887-.2q.1.094.2.2A3.976,3.976,0,0,1,14.837,24.689Z" transform="translate(0 -16.896)" fill="#343434"/>
    </g>
  </g>
</svg>
