<svg xmlns="http://www.w3.org/2000/svg" width="45.818" height="45.818" viewBox="0 0 45.818 45.818">
  <g id="Group_93" data-name="Group 93" transform="translate(-1053.652 -342.151)">
    <path id="Path_14" data-name="Path 14" d="M1088.614,350.586a2.694,2.694,0,1,0,2.695,2.694A2.694,2.694,0,0,0,1088.614,350.586Zm-11.975,3.455a11.314,11.314,0,1,0,11.315,11.314A11.328,11.328,0,0,0,1076.639,354.041Zm0,18.562a7.248,7.248,0,1,1,7.249-7.248A7.255,7.255,0,0,1,1076.639,372.6Zm22.831-16.652a13.8,13.8,0,0,0-13.8-13.8h-18.214a13.8,13.8,0,0,0-13.8,13.8v18.217a13.8,13.8,0,0,0,13.8,13.8h18.214a13.8,13.8,0,0,0,13.8-13.8Zm-4.322,18.217a9.478,9.478,0,0,1-9.479,9.477h-18.214a9.479,9.479,0,0,1-9.48-9.477V355.952a9.48,9.48,0,0,1,9.48-9.479h18.214a9.479,9.479,0,0,1,9.479,9.479Z" transform="translate(0 0)" fill="#fff"/>
  </g>
</svg>
