<svg xmlns="http://www.w3.org/2000/svg" width="74" height="64.75" viewBox="0 0 74 64.75">
  <path id="Icon_awesome-quote-left" data-name="Icon awesome-quote-left" d="M67.063,34.625H55.5v-9.25a9.259,9.259,0,0,1,9.25-9.25h1.156a3.46,3.46,0,0,0,3.469-3.469V5.719A3.46,3.46,0,0,0,65.906,2.25H64.75A23.119,23.119,0,0,0,41.625,25.375V60.062A6.939,6.939,0,0,0,48.562,67h18.5A6.939,6.939,0,0,0,74,60.062v-18.5A6.939,6.939,0,0,0,67.063,34.625Zm-41.625,0H13.875v-9.25a9.259,9.259,0,0,1,9.25-9.25h1.156a3.46,3.46,0,0,0,3.469-3.469V5.719A3.46,3.46,0,0,0,24.281,2.25H23.125A23.119,23.119,0,0,0,0,25.375V60.062A6.939,6.939,0,0,0,6.937,67h18.5a6.939,6.939,0,0,0,6.937-6.937v-18.5A6.939,6.939,0,0,0,25.437,34.625Z" transform="translate(74 67) rotate(180)" fill="#c2ab7f"/>
</svg>
