<svg xmlns="http://www.w3.org/2000/svg" width="15.493" height="17.9" viewBox="0 0 15.493 17.9">
  <path id="Path_1" data-name="Path 1" d="M50.489,17.312,49.129,4.356a.533.533,0,0,0-.53-.477H46.042V3.3a3.3,3.3,0,0,0-6.592,0v.583H36.893a.533.533,0,0,0-.53.477L35,17.312a.533.533,0,0,0,.53.588H49.959a.533.533,0,0,0,.53-.588ZM40.515,3.3a2.231,2.231,0,0,1,4.461,0v.583H40.515ZM36.124,16.835l1.249-11.89H39.45V6.119a.533.533,0,0,0,1.066,0V4.944h4.461V6.119a.533.533,0,0,0,1.065,0V4.944h2.077l1.249,11.89Z" transform="translate(-34.999)" fill="#343434"/>
</svg>
